<svg xmlns="http://www.w3.org/2000/svg" width="244" height="250" fill="none" viewBox="60 -4 244 250"><g clip-path="url(#a)"><path fill="#0f1721" d="m272.5 156.76.44.36-.44 3.67c2.9.89 12.31 5.68 13.18 8.23q.08.28.11.58c7.5 7.82 8.97 20.04 5.32 30.03.12 2.34-1.87 5.09-3.37 6.96-14.62 18.24-50.38 10.86-56.57-11.9-2.07 1-4.05 2.18-6 3.39a26 26 0 0 1 1.38 7.22q-.55.48-.23 1.6c-.17 4.49-.87 9.25-2.9 13.31q.06.3.07.57c-.02 1.57-4.06 6.3-5.36 7.62-12.23 12.5-34.93 15.08-46.63.55-1.46-1.82-3.38-4.28-3.45-6.56-.27-.6-.46-1.52-.72-2.18l-.56-.1a34 34 0 0 1-2.33-7.47l.47-.3c-.19-.02-.47-.08-.48-.21-.2-1.5-.07-3.86.48-5.24-1.13 3.2-4.35 6.08-7 8.23-17.94 14.51-39.3 8.14-47.38-12.82l.23-.98c-.02-.07.02-.16 0-.24l-.63-.62a40 40 0 0 1-.59-8.3c-11.51 8.22-26.8 8.37-36.86-2.74-1.71-1.9-3.96-4.5-4.23-6.98-5.35-10.36-3.27-23.8 3.98-32.7-1.12-15.84-2.79-31.76-4.46-47.59-.04-1.37-.24-2.28.83-3.27s2.01-.66 3.26-1.1c5.33-1.83 11-4.14 16.27-6.22 2.92-1.15 5.82-2.7 8.88-3.34a30.6 30.6 0 0 1 17.36-32.55L100.59 20.8c-.76-1.8.98-3.87 1.99-5.3 4.22-5.98 12.4-12.86 19.54-14.81 5.8-1.58 11.9.07 17.76.13 1.96.01 3.97-.5 5.8-.5 4.04 0 9.11.94 13.31 1.21q52.11 3.4 104.2 7.27c12.95.96 19.69-.54 27.97 11.2 14.36 20.38 9.14 47.44-5.03 66.28-2.19 2.9-4.88 5.39-7 8.23-2.05 20.78-4.7 41.48-6.64 62.26z"/><path fill="#6b371e" d="m197.22 79.58 57.77 6.9-8.72-23.98-3.27-3.64-9.81-3.63-12.72-2.18-15.62 4-3.27 5.08z"/><path fill="#fff0d6" d="M226.32 206.89c-.37-1.51-.29-3.1-.55-4.66s-.86-2.9-1.12-4.39c.73-.54 6.7-4.06 6.99-3.79 2.43 11.19 13.28 18.97 23.98 21.39 13.73 3.1 30.3-1.63 35.5-15.82 4.26 2.87 6.75 7.1 2.66 11.51-10.32 11.15-45.77 10.69-57.18 1.32-2.13-1.75-3.96-4.08-3.5-7.02h-6.78c-.01.48.02.97 0 1.46zm-115.56-5.57c1.44 5.76 7.47 13.5 12.35 16.81 14.37 9.78 32.74 1.85 41.8-11.24v5.45c0 1.8 1.7 6.03 2.42 7.87-12.29 5.96-27.6 7.05-40.86 4-7.06-1.63-23.26-7.37-19.83-17.21.86-2.45 2.83-3.63 4.12-5.68zm57.3 21.07c10.77 23.91 44.68 19.13 55.36-2.18 1.18 1.86 2.76 2.82 3.5 5.09 2 6.2-3.34 9.9-8.25 12.07-12.27 5.44-32.3 5.07-44.56-.34-6.1-2.69-11.48-8.23-6.05-14.64zm-99.61-39.96c7.18 13.9 21.9 19 36.18 12.15l5.64-3.43c-.46 3.05-.22 6.89.49 9.92-1.22.74-3.05.83-4.48.97-10.66 1-30.47-.53-38.91-7.75-4.75-4.06-3.91-8.6 1.08-11.86zm217.34-12.84c-3.72-3.88-8.74-6.67-13.75-8.5-.14-.2.4-3.69.46-4.33 5.9 1.16 16.1 5.03 13.3 12.83"/><path fill="#b97329" d="M266.93 87.01c-2.05-.59-4.58-.34-6.6-.78-.35-.07-.68-.25-.85-.6l-17.81-46.81-1.26-1.4c-27.96-2.03-55.9-4.08-83.84-6.35-13.62-1.1-27.2-2.54-40.85-3.38-1.18.23-.9 1.52-.69 2.37l9.02 22.93c.1.63-1.25.32-1.78.4-1.3.17-2.57.53-3.87.7l-13.69-33.43 142 10.69z"/><path fill="#b87229" d="m268.87 160.15-7.01-.97c1.63-14.22 2.96-28.49 4.35-42.74.18-1.84 1.45-4.65-1.27-4.92l-39.95 21.75c-.62.44-.77 1.33-.84 2.06-.3 2.95-.1 6.44-.24 9.45-.56 11.6-1.46 23.29-1.7 34.86-.04 1.26-.2 3.75 0 4.84.17.89.98 1 1.75.8l7.32-4.06c-.22 2.83-.66 5.8-.72 8.72l-8.34 4.6c-.96-2.55-3.2-5.15-5.07-7.16-.66-.7-1.9-1.05-1.96-2.15.8-19.23 1.4-38.41 2.47-57.61l.35-.38c18.93-10.02 37.77-20.21 56.79-30.05z"/><path fill="#ff0420" d="M122.3 56.8c13.82-1.73 25.6 7.4 24.49 21.87-.22 2.78-1.26 2.66-2.8 4.47a38 38 0 0 0-5.96 9.04c-.49 1.11-1.25 4.05-1.78 4.75-.85 1.13-5.6 3.74-7.05 4.31-9.46 3.72-20.98 1.15-26.22-8-8.09-14.16 3.77-34.48 19.33-36.43z"/><g clip-path="url(#b)"><path fill="#ff0420" d="M141.98 78.49a19.62 19.62 0 1 0-39.24 0 19.62 19.62 0 0 0 39.24 0"/><path fill="#fff" fill-rule="evenodd" d="M122.36 95.66v-7.27a13.54 13.54 0 0 0 0-27.07v7.26a13.54 13.54 0 0 0 0 27.08m6.7-17.11v-.13q-4.43-2.2-6.63-6.63h-.13q-2.2 4.43-6.63 6.63v.13q4.42 2.2 6.63 6.63h.13q2.2-4.42 6.63-6.63" clip-rule="evenodd"/></g><path fill="#a95724" d="M126.96 139.56c2.86.6 5.1 1.6 8.22 1.7l3.91.24 59.46 11.1.2.52c-.08 5.01-.11 10.01-.23 15.02l-.32.43-75.27-14.6-.57-.6c-2.49-5.62-9.9-12.82-15.65-14.96a26.1 26.1 0 0 0-20.25.66.8.8 0 0 1-.36-.6c-.33-2.02-.28-4.56-.48-6.66h1.43q18.62 3.37 37.26 6.72z"/><path fill="#8033dc" d="m177.24 112.44-.36-.5q1.97-4.4 1.97-8.84c-1.8-3.15-5.63-7.78-9.73-5.87q-6.37 2.48-12.72 4.88c-2.43 1.36-6.1-3.36-6.17-5.32-.02-.68 1.3-4.81 1.71-5.32.77-.97 6.02-2.9 7.26-2.65 3.4 1.55 5.59 4 3.92 7.85.1.14 3.1-.97 3.22-1.08s.3-2.5.25-2.86c-.3-2.51-4.71-6.16-7.17-6.63-1.88-.36-7.89 1.72-9.12 3.14-1.98 2.29-4.13 8.36-2.12 11.06 2.62 3.52 6 6.21 10.52 4.12a76 76 0 0 1 12.2-4.55c1.43-.1 4.55 2.61 5.06 3.92.66 1.68-1.02 8.37-3.8 7.68q-4.36-.72-8.7-1.46c-.64-.13-.95-1.18-.96-1.78l.56-2.82c-.1-.19-3.73.94-3.25 2q.04 1.45-.7 1.88c-6.6-1.11-13.25-2.02-19.83-3.27-.6-3.1-.15-6.65.67-9.75 3.74-14.23 18.61-23.19 32.88-18.77 15.17 4.7 18.66 23.74 10.07 35.86-1.86-.48-3.77-.63-5.66-.92z"/><path fill="#e83035" d="M153.3 75.15a27 27 0 0 0-4-8.7c-.51-.74-1.76-1.63-1.82-2.56-.05-.87 1.15-4.27 1.54-5.27 10.46-27.63 47.85-23.68 45.38 7.44-.37 4.7-4.43 13.37-7.38 17.06-.18.22-.15.38-.35.13a29 29 0 0 0-5.32-5.2c-.03-.43.19-.56.5-.75.87-1.13-1.58-9.46-2.17-9.69-.08-.03-.24.04-.32.1a4 4 0 0 0-.59.43c-2.03 1.72-3.74 4.15-5.16 6.28a33 33 0 0 0-5.56-1.22q-.28-.63.65-.97l8.75-11.62c.14-.44-1.53-6.77-1.82-7.67-1.44-4.31-3.8-2.66-5.85.25a1799 1799 0 0 0-15.6 21.33z"/><path fill="#b97229" d="M272.93 13.7c9.05-.86 15.77 8.08 18.95 15.51 8.27 19.35 2.65 42.03-11.04 57.32-3.05 3.41-6.41 6.1-9.36.65l-20.75-57.2c0-.94 2.17-3.31 2.9-4.12 4.6-5.13 12.2-11.47 19.3-12.15z"/><path fill="#b87228" d="m150.4 116.56 63.35 10.65c-.04.69.05 1.4 0 2.07-.91 16.96-1.02 33.93-2.18 50.85-.05.86.11 1.85 0 2.67-.03.28.1.48-.35.35-1.02-.3-2.73-1.43-3.93-1.87-1.77-.66-3.64-1-5.4-1.67-.09-.74.25-1.42.27-2.13.33-12.6.46-25.17.7-37.8.03-1.46.88-4.6-.35-5.69l-52.1-9.2v-8.23z"/><path fill="#6e381e" d="M220.03 90.4c-8.33-1.35-17.12 1.59-23.44 7.03-7.51-11.18-3.21-26.21 7.41-33.62 8.37-5.84 19.93-7.68 28.59-1.36 12.23 8.94 10.85 26.55.62 36.43a22 22 0 0 0-7.13-6.3l.14-.6 4.58-1.5c3.25-.51 4.7-6.88 4.62-9.55-.04-1.56-3.62-4.82-5.05-5.36-1.5-.57-7.83 1.33-9.06 2.47-1.22 1.14-2.12 4.98-2.42 6.64-.4 2.27-.6 3.47 1.27 5.18z"/><path fill="#a95725" d="M130.82 9.52c2.84-1.89 6.2-3.88 9.44-4.96 3.52-1.16 5.83-.36 9.3-.13 22.83 1.5 45.62 3.46 68.42 5.09q13.6.95 27.2 1.7c-1.44 1.1-3.04 2.01-4.47 3.15a49 49 0 0 0-4.24 3.87l-.94.4-104.44-8.62z"/><path fill="#aa5725" d="M234.78 19.93c-1.55 1.75-2.98 4.02-4.35 5.93-.38.23-1.35.16-1.83.13-27.4-1.42-54.84-4.25-82.19-6.3-8.34-.63-16.7-.99-25.01-1.82 1.8-2.46 4.16-4.33 6.52-6.18l1.22-.39 103.48 7.97q1.62-.15 2.16.66z"/><path fill="#a95725" d="M141.22 140.53c5.47-1.56 8.39-6.38 8.96-11.85l49.06 8.46c-.4 4.43-.17 8.88-.24 13.32q-.2 1.15-.83 1.16l-56.75-10.56zm57.3 29.55c-.09 3.06-.1 6.14-.24 9.2-4.38-.29-8.55.71-12.7 1.96l-18.57-3.7c-4.13-6.88-10.9-13.63-19.01-15.34-8.18-1.73-16.3.58-23.22 4.97v-5.45c0-1.26-1-4.6-1.45-5.93l.32-.43 74.66 14.19z"/><path fill="#b87229" d="m118.25 118.98-37.47-6.66c-.44.35-.73.88-.73 1.45l2.42 26.89-.24.48-6.28 4.48-4.11-43.1 46.25 8.5.3.2c.1 2.55-.31 5.16-.14 7.76z"/><path fill="#b87329" d="M272.5 94.04c-.03.3-.34.4-.56.53-5.47 2.97-11.52 5.64-17.1 8.54-13.13 6.81-26.07 14.14-39.27 20.72l-43.35-7.69-95.07-16.05 21.12-8.21 1.84 3-9.03 3.79c-.59.4-.97 1.42-.25 1.89a7894 7894 0 0 0 120.87 20.07c19.15-8.23 36.9-19.24 55.95-27.7z"/><path fill="#6b371e" d="M152.58 42.21c-.2-.65-2.68-7.64-2.3-7.75 29.29 2.27 58.57 4.6 87.85 6.82.4.24 2.76 7.6 3.18 8.68l-.21.47-45.71-3.77-.98-.57c-9.77-10.56-25.2-12.05-36.99-3.87q-1.18.42-2.64.18-1.4.36-2.2-.18z"/><path fill="#a95725" d="m258.96 149.98-.35.72a10553 10553 0 0 1-31.55 17.72l-.5-.28q.36-8.23.73-16.47.77-.6.76 1.04l31.86-17.78.5.27q-.7 7.4-1.45 14.78zm-173.58-20.1c-.4-4.32-.68-8.65-1.22-12.96l.58-.1 33.26 6.04c.11 5.1.07 9.9 4.12 13.55l-.25.45-36.29-6.46z"/><path fill="#3e5168" d="m122.12 111.71 24.55 4.59c.07 3.33.27 6.74.12 10.07-.16 3.48-.35 6.76-3.15 9.2-4.9 4.27-15.72 2.58-19.95-2.06-2.8-3.06-2.09-6.55-2.04-10.28.04-3.85 0-7.7.47-11.52"/><path fill="#a95725" d="M261.86 120.68q-.64 6.17-1.21 12.35l-.35.72a15723 15723 0 0 1-32.52 17.96l-.5-.28c.06-1 .25-2.47.25-3.27v-5.33c0-1.13.18-2.94.24-4.23l.35-.74 33.12-18.19c.76-.35.95.39.62 1z"/><path fill="#6e381f" d="M144.6 60.86c-.36.1-.4-.1-.6-.24-3.28-2.25-5.89-5.62-10.42-6.28l-5.3-.98c-2.28-7.15-5.12-14.1-7.85-21.08 10.05-.22 18.9 4.24 23.82 13.07.78 1.4 3.2 6.32 3.25 7.66.05 1.47-3.32 5.8-2.9 7.85"/><path fill="#6b371e" d="M242.03 51.66c2.03 5.32 4.12 10.64 6.18 15.96.08.2.25.52-.02.5l-6.16-.85c-4.06-5.67-11.05-10.41-18.04-11.46-8-1.2-15.76 1.64-22.33 6.02a28 28 0 0 0-5.32-13.32l.2-.47q22.53 1.52 45.07 3.13z"/><path fill="#1f3149" d="M230.91 107.6a58 58 0 0 1-7.25 3.63v-3.88l-.48 4.12q-.3-.05-.43-.32c.03-.33.03-2.65-.1-2.68-.3-.06-4.45 3.43-3.25 4.72l-.33.46c-.79.4-1.5.64-2.18.97-.3 0-.52-.1-.57-.38l-2.81 2.08c-.18.08-.41.43-.75.58-.75.33-2.14.94-2.88.75l.97-1.33.52-1.1a284 284 0 0 1 11.55-10.78l-3.44-.86a1544 1544 0 0 0-14.33 13.05l-.83-.07c-.6.22-1.2.54-1.69-.12l.97-1.33-.17-.51 12.74-11.74c.1-.3-3.5-1.15-4.24-.92l-12.43 12.03c-.72.58-1.64 1.27-2.43 1.62-.72-.12-1.65-.1-2.42-.24-1-1.58-.24-4.47.31-6.3 5.16-17.21 30.81-20.5 36.25-1.97z"/><path fill="#fdfdfd" d="M139.48 165.55c24.83-2.15 29 26.58 12.63 40.98-17.2 15.12-43.5 5.64-37.65-19.06 2.67-11.3 13.41-20.92 25.02-21.92zm53.91 17.67c24.07-2.31 33.84 22.88 16 38.56-10.25 9.03-28.6 10.96-37.32-1.11-11.41-15.79 4.34-35.81 21.32-37.44M95.96 140.6c7.94-.45 15.86 3.65 18.85 11.24 4.78 12.16-2.32 26.26-12.78 32.86-18.56 11.72-38.46-1.95-31.34-23.64 3.55-10.8 13.7-19.81 25.27-20.47m163.43 22.28c14.61-.43 33.38 11.33 28.65 27.97-3.98 13.98-21.75 17.77-34.04 13.38-25.28-9.03-22.38-40.52 5.39-41.35"/><path fill="#fefefe" d="M168.06 73.21a29.3 29.3 0 0 0-14.75 2.66c-.03-.23.05-.53 0-.72 4.74-6.23 8.9-12.9 13.68-19.11.83-1.07 4.01-5.38 4.84-5.8.88-.46 2.36-.47 3.12.2 1.26 1.1 2.65 8.34 3.02 10.28l-8.95 11.88zm4.1 38.26c2.52-.39 3.86-5.9 3.28-7.76-.14-.48-3.07-2.97-3.58-3.2-.58-.25-.81-.18-1.4-.07-4.33.8-9.8 4.33-14 5.11-3.32.62-5.97-1.7-8-4.12-1.38-1.66-1.92-2.46-1.57-4.74.4-2.55 1.8-7.4 4.15-8.68 1.2-.65 5.71-2.32 6.99-2.44 3.26-.31 6.07 2.4 7.98 4.83 1.64 2.1 1 3.07.8 5.54l-4.31 1.49c.15-1.44 1.1-3.4.54-4.79-.42-1.01-3.29-3.52-4.5-3.44-.64.04-5.72 1.97-6.1 2.4-.44.48-1.69 4.55-1.74 5.28-.07 1.12 2.54 4.15 3.44 4.67 1.04.6 2.15.07 3.16-.25 4-1.26 8.47-3.75 12.44-4.74.48-.11 1.6-.34 2.04-.33 2.18.07 7.15 4.81 7.58 6.94.54 2.63-1.46 6.67-2.12 9.27-1.69-.26-3.4-.7-5.08-.97z"/><path fill="#713c1e" d="M236.47 18.24c-.51.53-1.25 1.2-1.69 1.7L127.92 11.7c.96-.75 1.87-1.49 2.9-2.18z"/><path fill="#b97329" d="m264.03 12.18-6.02 3.78c-4.07 3.2-7.85 6.83-10.7 11.18-4.1.14-8.18-.64-12.28-.67-.27-.24 2.45-3.52 2.77-3.88a51 51 0 0 1 13.97-10.95c2.95-.16 6.03.38 9 .54 1.09.06 2.19-.04 3.27 0z"/><path fill="#fb9614" d="M288.93 197.44c-4.03 12.36-17.83 17.08-29.82 15.47-11.72-1.58-24.36-10.54-25.05-23.21l1.65 3.8c10.45 18.77 40.7 22.63 53.22 3.95z"/><path fill="#a95725" d="M258.71 152.16c-.24 2.3-.29 4.7-.48 7.02-10.57.38-20.93 6.3-24.8 16.45q-3.7 2.24-7.6 4.13c.4-2.9.35-6 .49-8.96l.33-.73 31.56-18.19z"/><path fill="#0f55f4" d="m221.97 201.8.96 3.52c2.33 23.14-28.7 39.44-46.17 24.1a35 35 0 0 0 7.97 2.78c14.23 2.8 30.04-6.1 35.42-19.5.55-1.38 1.82-5.33 1.82-6.66z"/><path fill="#733c1e" d="M198.52 168.14c-.02.65.02 1.3 0 1.94l-75.19-14.29c-.24-.7-.66-1.72-.97-2.42z"/><path fill="#bf2146" d="M125.26 216.1c1.12.26 2.2.68 3.34.89 18.36 3.31 37.1-13.2 36.8-31.79-.01-1.06-.32-2.15-.42-3.2-.02-.27-.29-.83.17-.78 8.34 21.08-16.42 45.03-37.22 36.44-.86-.35-2.07-.89-2.67-1.56z"/><path fill="#b97329" d="m132.51 3.95-4.9 2.95a56 56 0 0 0-8.76 7.7c-1.6 1.7-1.4 3.02-4.1 2.9-2.45-.1-5.13-.62-7.62-.72 4.85-5.85 12.2-12.56 20.18-13.08 1.75-.12 3.46.23 5.2.25z"/><path fill="#723c1e" d="m141.22 140.53 57.2 10.65.58-.72c-.01.95-.23 1.9-.24 2.67l-63.58-11.87c2.1.06 4-.27 6.04-.73"/><path fill="#e78312" d="M79.33 190.9c15.66 5.51 32.43-4.76 38.14-19.55a31 31 0 0 0 2.06-15.02c-.02-.27-.28-.83.17-.78a25 25 0 0 1 1.7 10.77c-.35 4.76-1.53 4.5-4.1 7.76a35 35 0 0 0-4.17 6.73c-1.03 2.25-1.2 4.57-3.1 6.34a31 31 0 0 1-11.36 6.3c-6.38 1.8-13.86 1.47-19.34-2.55z"/><path fill="#7295bd" d="m230.91 107.6-2.13-4.77c-5.57-10.09-19.46-9.6-27.47-2.73a19.3 19.3 0 0 0-6.66 15.25c-1.88-.35-2.31.11-2.17-2.06 1.01-15.98 21.96-26.8 34.44-16.1 1.92 1.64 5.5 6.82 5.43 9.34-.02.61-.99.79-1.44 1.07"/><path fill="#46291e" d="M241.3 49.96c.2.5.5 1.09.73 1.7l-45.69-3.15c-.47-.66-1.4-1.86-1.93-2.43z"/><path fill="#6e381e" d="m263.79 90.89-21.27 10.17c-.14-.15 1.89-2.9 2.13-3.32a28 28 0 0 0 3.19-8.8z"/><path fill="#fefefe" d="M197.07 115.59c.19-1.02 1.52-1.38 2.18-2.06l12.43-12c.8-.47 3.73.49 4.86.73.33.08.7-.2.6.37L203.6 115.1l-1.6 1.4c-1.66-.2-3.3-.64-4.93-.91z"/><path fill="#733d1e" d="M261.86 120.67c.2-1.33-.61-.27-1.22-.12l-32.87 18.05c.02-.51.1-2.47.39-2.7l34.06-18.62c-.1.98-.02 2.06-.13 3.03-.04.4-.23.34-.23.36z"/><path fill="#723c1e" d="M122.12 136.42c1.45 1.3 3.32 1.95 4.84 3.14-13.73-2.84-27.69-4.63-41.34-7.75-.06-.62-.18-1.25-.25-1.93z"/><path fill="#fefefe" d="M210.85 116.32c-.3.25-1.04 1-1.22 1.08-.86.4-4.33-.35-5.31-.84.19-.07.44-.05.6-.23 4.56-3.82 8.86-8.79 13.42-12.49.25-.2.8-.7 1.08-.73.39-.05 4.48.99 4.47 1.22-1.7 1.61-3.6 3.02-5.31 4.6-2.61 2.38-5.04 5.11-7.74 7.39z"/><path fill="#723c1e" d="M260.65 133.03q-.12 1.1-.24 2.18l-32.53 18.15c-.75.23 0-1.42-.6-1.69v-.24zm-1.7 16.95q-.11 1.1-.24 2.18l-32.4 18.64c.05-.94.21-1.78.25-2.66z"/><path fill="#6e381e" d="m255.33 86.29-7.01-.49a24 24 0 0 0-3.15-14.53c1.14.22 4.08-.08 4.71.73z"/><path fill="#fefefe" d="M173.62 74.42c-.06-.52-.04-.87.23-1.34.48-.83 3.2-3.91 4-4.72 2.06-2.1 2.4-1.32 3.14.98.5 1.52 2 6.73 1.44 7.98-.15.35-.67.71-1.08.74a27 27 0 0 0-7.73-3.64z"/><path fill="#7f33d9" d="M185.95 113.9c.86-1.79 1.81-3.5 2.48-5.39a30 30 0 0 0 1.62-12.9l-1.57-6.9a23 23 0 0 1 3.75 14.4c-.18 2.2-1.18 4.12-1.81 6.19-.26.86-.99 4.53-1.2 4.84-.4.55-2.54-.37-3.27-.25z"/><path fill="#ba7329" d="m179.9 184.13-7.5 5.94c-.33-.27-2.08-.55-2.15-.64-.24-.3-.45-6.53-1.47-7.48z"/><path fill="#6c381e" d="M150.17 49.23a32.7 32.7 0 0 0-11.85-15.74l7.38.48.48.24c1.3 3.9 2.9 7.88 3.87 11.87.19.79.94 2.76.12 3.15"/><path fill="#fdfcfd" d="M159.11 109.3c.05-.72.21-2.67.6-3.15.2-.24 3.84-1.6 4-1.46l-.74 3.52.49 1.8q-2.18-.35-4.35-.72z"/><path fill="#03c5f9" d="M223.18 111.47c-.1.3-3.52 1.87-4.11 2.18-1.37-2.99 2.46-4.37 3.98-6.3.03.97.37 3.33.13 4.12"/><path fill="#eb3336" d="M197.07 65.7c.68-4.05 0-8.22-1.2-12.1 1.48 1.62 4.04 8.28 3.25 10.16-.19.44-1.61 1.53-2.05 1.94"/><path fill="#ff0420" d="M135.66 100.82a15 15 0 0 0-.49 4.6l-6.28-1.21z"/><path fill="#482a1d" d="m157.42 42.21-3.75 3.63c-.23 0-.92-3.09-1.09-3.63a10 10 0 0 1 4.84 0"/><path fill="#e83035" d="M151.1 77.05c-.06.09-1.64.63-1.9 1 .17-2.7-.3-5.34-.72-7.99.96.8 3.13 6.16 2.61 6.99"/><path fill="#06d2f4" d="M216.9 114.62c-1.15.56-2.23 1.15-3.4 1.7.78-1.38 2.58-2.02 3.15-3.4z"/><path fill="#d03134" d="M190.3 83.14c-.6.93 0 1.85 0 2.78 0 .36.16.7-.36.6-.26-.36-1.37-1.09-1.3-1.52.02-.18 1.31-2.15 1.66-1.86"/><path fill="#0f1721" d="M271.48 22.18c8.2-.99 13.16 4.72 15.94 11.74 5.85 14.75 1.86 29.7-6.6 42.42-.85 1.27-3.04 4.77-4.6 4.86s-1.98-1.96-2.45-3.08c-6.01-14.47-10.43-30.08-16.03-44.75-.15-2.12 2.48-4.56 4-5.92 2.45-2.2 6.43-4.87 9.74-5.27z"/><path fill="#0f1821" d="M135.42 126.26c-.14.19.68 3.95.72 4.71s.13 3.12-.22 3.6c-.45.64-5.64-.02-6.3-.46-1.4-.95.33-6.8.92-8.27-1.68-1.94-2.6-4.25-1.03-6.6 3.4-5.04 11.83.16 7.7 5.78-.58.8-1.72 1.15-1.79 1.24z"/><path fill="#f513b8" d="M139.72 167.73c23.02-1.86 25.52 24.82 10.45 37.83-14.27 12.33-36.78 5.96-34.06-15.23 1.54-11.96 11.58-21.63 23.61-22.6z"/><g clip-path="url(#c)"><mask id="d" width="50" height="50" x="112" y="165" maskUnits="userSpaceOnUse" style="mask-type:luminance"><path fill="#fff" d="m123.69 165.27 37.61 11.2-11.2 37.6-37.6-11.19z"/></mask><g mask="url(#d)"><path fill="url(#e)" d="m123.69 165.27 37.61 11.2-11.2 37.6-37.6-11.19z"/><path fill="#fff" d="M152.03 193.87a15.4 15.4 0 0 1-10.37-19.16l-.57-.17-4.4 14.76-14.75-4.39-.17.57a15.4 15.4 0 0 1 10.36 19.15l.57.17 4.4-14.76 14.76 4.4z"/></g></g><path fill="#1156f4" d="M195.56 185.17c23.2-1.5 27.8 27.09 8.1 38.38-15.22 8.73-36.34.74-32.6-18.85 2.2-11.48 13.35-18.81 24.5-19.53"/><path fill="#4883e4" d="M95.24 142.79c21.91-1.77 23.77 24.41 9.96 37.1-15.58 14.32-38.8 5.77-32.76-17.08 2.78-10.5 11.76-19.14 22.8-20.03z"/><path fill="#0f1821" d="M257.46 165.06c14.37-1.38 34.01 9.6 28.1 26.22-6.76 18.98-38.54 15.68-45.4-1.77-5.1-12.97 4.73-23.24 17.3-24.45z"/><path fill="#aa5725" d="M283.86 61.83a55 55 0 0 1-3.83 8.4 34 34 0 0 1-2.83 4.42c-.24.28-.2.33-.48.02L261.97 33.5c1.58-2.7 4.57-4.98 7.38-6.31.37.53.74 1.08.93 1.7 2.7 8.83 5.32 16.74 9.03 25.14 1.08 2.44 2.52 5.67 4.48 7.26z"/><path fill="#aa5725" d="M284.34 60.37a6 6 0 0 1-.7-.53 3 3 0 0 1-.54-.62 71 71 0 0 1-3.72-7.25c-3.5-7.6-6.1-15.81-8.55-23.81a3 3 0 0 1-.1-.82 6 6 0 0 1 .07-.87c10.39-3.24 15.04 11.76 15.49 19.48.3 5.3-.38 9.45-1.95 14.42z"/><path fill="#703b1e" d="M284.34 60.37c-.16.52-.3.94-.48 1.46-1.23-.35-1.86-1.74-2.46-2.75-1.86-3.1-3.52-6.98-4.91-10.34a149 149 0 0 1-7.14-21.54c.47-.23.95-.57 1.45-.73 3.63 11.55 7.23 23.53 13.54 33.9"/><path fill="#fefefe" d="M205.77 210.04c-5.82 14.51-31.15 10.83-25.87-6.79zm1.43-3.17-25.6-6.64c6.8-11.63 27.77-8.44 25.6 6.64"/><path fill="#f4f9fe" d="m97.7 147.31.17 2.16-1.58 10.7-.52.22q-.1.32-.24 0a4 4 0 0 1-.57.46c-1.11.72-9.82 2.49-11.06 2.2a4 4 0 0 1-.7-.24l14.38-16.22c.27.06.06.52.12.72z"/><path fill="#b2c4d9" d="M92.87 170.08c-.21.07-.5.7-.96.37l-8.71-7.64c4.15-.48 8.25-1.5 12.33-2.42a.6.6 0 0 1 .39.4c.07.46-2.2 8.4-2.46 8.8z"/><path fill="#b0c2d9" d="M97.7 147.31c1.96 6.26 3.5 12.69 5.57 18.89-.15.04-.4-.04-.49 0l-.62.08c-.4-.14-6.22-4.93-6.42-5.3-.1-.17-.03-.4.03-.6z"/><path fill="#f8fbfe" d="m91.66 172.74.3.42a139 139 0 0 1-2.72 8.06l-.36.48-.32-.4-5.6-16.06z"/><path fill="#8e929a" d="M102.78 166.2c-3.16 1.54-6.62 2.65-9.91 3.88l2.66-9.69h.24z"/><path fill="#b1c3d9" d="M91.66 172.74c3.13-.91 6.18-2.72 9.26-3.68.24-.07.72-.4.9-.07l-12.58 12.23c-.28-.37-.05-.68.05-1.02.3-1.06 1.96-7.13 2.37-7.46z"/><path fill="#fefefe" d="M259.68 173.71 255.33 188l12.57 3.03c.67.52-.82 2.9-.75 3.73l-17.62-3.86 5.8-18.16zm10.58 2.97c5.94-.73 6.7 7.23.88 7.42-5.06.17-6.31-6.75-.88-7.42"/><path fill="#6e381e" d="m198.3 82.85 63.23 8.35-25.07 13.08c-2.33-5.8-8.48-10.17-11.27-11.62-12.5-6.69-25.43 2.3-30.52 7.27.3-2.33-2.18-9.21-3.27-12z"/><path fill="#0f1721" d="M188.5 84.66c6.39-5.23 8.47-15.5 8.72-19.98-.49-1.94-1.46-4.5-1.46.72s-5.57 14.54-8.36 18.54z"/><path fill="#eb3336" d="M190.31 86.48c9.89-8.72 9.93-20.83 8.72-25.8l-1.81 1.82c-.59 9.6-5.82 19.01-8.36 22.53z"/><path fill="#0f1721" d="M189.95 86.84c10.75-10.17 10.3-22.89 8.72-27.98l2.54.37c2.62 14.53-5.93 25.68-10.53 29.43z"/><path fill="#0f1721" d="m198.3 78.49 69.04 8.72-1.45 4.72-69.76-9.81z"/><path stroke="#46291e" stroke-width="2.18" d="m201.58 65.77 47.6 4"/></g><defs><clipPath id="a"><path fill="#fff" d="M64.22 0h235.46v241.27H64.23z"/></clipPath><clipPath id="b"><path fill="#fff" d="M102.74 58.87h39.24V98.1h-39.24z"/></clipPath><clipPath id="c"><rect width="39.24" height="39.24" x="123.69" y="165.27" fill="#fff" rx="19.58" transform="rotate(16.58 123.69 165.27)"/></clipPath><radialGradient id="e" cx="0" cy="0" r="1" gradientTransform="rotate(106.58 -2.27 145.88)scale(19.6215)" gradientUnits="userSpaceOnUse"><stop stop-color="#fc74fe"/><stop offset="1" stop-color="#f50db4"/></radialGradient></defs></svg>