<svg xmlns="http://www.w3.org/2000/svg" width="396" height="396"><svg xmlns="http://www.w3.org/2000/svg" width="396" height="396" fill="none" viewBox="0 0 396 396"><g clip-path="url(#SvgjsClipPath1019)" transform="translate(37)"><path fill="#ff70ac" d="M154.708 55.541c33.641-1.415 69.071 7.451 95.654 28.525 46.498 36.865 67.142 94.386 50.764 152.688-8.314 29.607-27.353 38.969-8.736 71.426 8.626 15.039 20.882 28.658 24.744 46.116 7.859 35.484-31.99 37.733-52.297 19.595-20.785-18.565-8.63-48.03-25.097-65.424-4.603-4.86-15.493-9.281-18.554-.658-2.444 6.873 1.937 18.522 3.308 25.797 3.555 18.852 6.241 44.868-13.977 54.969s-37.75-5.395-39.133-26.435c-.954-14.5 6.518-39.874-.328-51.822-6.48-11.307-20.716-7.861-22.172 4.83-1.482 12.906 3.669 28.884 2.95 42.717-1.052 20.356-13.185 38.165-35.711 33.257-33.918-7.386-16.497-56.105-18.379-78.581-.83-9.922-6.718-12.017-11.988-3.074-14.241 24.178-11.07 53.246-39.13 70.144-14.232 8.571-38.405 8.237-42.002-11.615-3.58-19.736 19.234-46.154 28.213-62.936 13.253-24.768 2.422-33.142-6.382-55.165-37.337-93.377 30.193-190.229 128.253-194.354"/><path fill="url(#paint0_linear_83_11322)" d="M55.524 180.478c-7.638-56.52 44.996-101.422 74.687-121.932C45.732 76.106-7.902 164.456 26.255 249.9c8.804 22.023 19.635 30.398 6.382 55.165-8.98 16.778-31.79 43.2-28.214 62.937a23 23 0 0 0 1.01 3.766c90.178-78.89 60.445-114.669 50.091-191.293z" opacity=".29"/><path fill="#ff70ac" d="M316.942 354.292c-3.865-17.454-16.118-31.073-24.744-46.116-18.617-32.458.422-41.819 8.737-71.426 16.373-58.303-4.266-115.823-50.765-152.688-26.583-21.074-62.012-29.94-95.654-28.525-8.336.35-16.45 1.372-24.301 3.005-29.691 20.51-82.324 65.412-74.687 121.932 10.35 76.619 40.088 112.403-50.091 191.293 5.824 16.085 27.728 15.833 40.994 7.844 28.06-16.898 24.888-45.966 39.129-70.144 5.27-8.943 11.154-6.848 11.988 3.074 1.886 22.476-15.535 71.191 18.379 78.582 22.526 4.907 34.659-12.902 35.711-33.258.715-13.837-4.436-29.816-2.95-42.717 1.46-12.687 15.692-16.137 22.172-4.83 6.846 11.948-.626 37.322.328 51.822 1.383 21.036 18.408 36.788 39.133 26.435 20.218-10.101 17.532-36.117 13.977-54.969-1.371-7.275-5.752-18.924-3.308-25.797 3.065-8.623 13.951-4.202 18.554.658 16.467 17.394 4.312 46.859 25.097 65.424 20.307 18.138 60.156 15.889 52.297-19.595z"/><path fill="#000" d="M123.169 396c-2.614 0-5.326-.304-8.11-.906-12.742-2.775-20.567-11.166-23.254-24.935-2.188-11.225-.757-24.583.503-36.369.851-7.942 1.652-15.444 1.196-20.903-.251-3.014-.988-4.467-1.383-4.946-.52.265-1.686 1.21-3.091 3.599-4.76 8.084-7.57 17.026-10.286 25.674-5.266 16.774-10.716 34.121-30.244 45.881-10.593 6.378-24.83 7.715-34.63 3.261C6.574 383.039 1.93 376.939.44 368.723c-2.955-16.287 9.71-35.758 19.881-51.403 3.36-5.168 6.535-10.046 8.745-14.179 9.464-17.689 5.807-25.264-.83-39.016-1.793-3.71-3.823-7.916-5.743-12.717-17.724-44.337-13.3-92.436 12.137-131.973 12.538-19.488 29.798-35.984 49.913-47.701 20.959-12.213 45.094-19.215 69.791-20.254 17.553-.73 35.447 1.33 51.748 5.98 17.668 5.04 33.339 12.919 46.58 23.417 23.675 18.77 41.062 43.038 50.283 70.182 9.4 27.671 10.048 57.683 1.869 86.798-2.563 9.123-6.096 16.381-9.213 22.789-7.19 14.777-11.942 24.537.09 45.513 2.477 4.317 5.351 8.652 8.127 12.841 6.969 10.507 14.173 21.369 17.059 34.42 4.313 19.479-4.819 28.153-10.647 31.594-6.467 3.817-15.093 5.027-24.28 3.407-8.953-1.577-17.477-5.655-24.007-11.49-12.185-10.88-14.101-25.255-15.795-37.934-1.409-10.563-2.746-20.544-9.545-27.726-2.337-2.471-6.918-4.809-9.741-4.202-.707.15-1.507.517-2.073 2.112-1.409 3.971.46 11.319 1.962 17.227.588 2.308 1.141 4.488 1.512 6.455 1.72 9.13 3.499 21.027 1.958 32.081-1.813 13.004-7.906 22.177-18.106 27.277-9.779 4.886-19.784 4.912-28.171.073-9.656-5.57-15.94-16.74-16.8-29.876-.366-5.583.396-12.328 1.201-19.471 1.277-11.298 2.72-24.101-.996-30.594-2.061-3.595-5.224-5.344-8.447-4.677-2.618.543-5.624 2.915-6.203 7.947-.723 6.288.281 13.521 1.341 21.177.979 7.057 1.988 14.358 1.631 21.288-.715 13.786-6.024 25.455-14.573 32.013-5.1 3.916-11.197 5.908-17.923 5.908zm-30.92-96.262c.638 0 1.204.081 1.68.188 2.027.466 6.825 2.595 7.639 12.277.523 6.237-.32 14.115-1.214 22.455-1.2 11.213-2.563 23.921-.609 33.941 2.065 10.58 7.476 16.475 17.03 18.557 7.663 1.667 14.194.487 19.409-3.514 6.658-5.113 10.818-14.581 11.41-25.982.319-6.155-.639-13.068-1.567-19.745-1.086-7.822-2.205-15.914-1.367-23.228.886-7.691 5.833-13.564 12.602-14.97 6.714-1.39 13.266 1.893 17.093 8.579 5.045 8.806 3.508 22.408 2.027 35.561-.766 6.771-1.486 13.166-1.167 18.022.673 10.26 5.565 19.215 12.76 23.37 6.054 3.493 13.155 3.386 20.537-.303 17.285-8.64 15.39-31.565 11.806-50.579-.324-1.714-.848-3.774-1.401-5.954-1.865-7.34-3.981-15.659-1.741-21.964 1.392-3.924 4.24-6.527 8.016-7.327 6.059-1.286 13.275 2.322 17.281 6.553 8.608 9.093 10.179 20.861 11.699 32.245 1.652 12.375 3.214 24.066 13.155 32.945 10.984 9.81 28.759 13.08 38.814 7.147 8.702-5.134 8.528-15.248 6.851-22.831-2.563-11.572-9.039-21.339-15.897-31.68-2.849-4.296-5.799-8.742-8.404-13.286-14.177-24.716-7.766-37.882-.345-53.13 3.112-6.395 6.33-13.008 8.693-21.425 7.732-27.52 7.127-55.862-1.741-81.967-8.715-25.661-25.191-48.629-47.64-66.43-24.032-19.052-57.917-29.123-92.976-27.657-23.73 1-45.958 7.447-66.07 19.164-19.013 11.08-35.327 26.67-47.175 45.085-23.995 37.288-28.158 82.682-11.427 124.539 1.814 4.54 3.695 8.434 5.513 12.2 6.761 14 12.1 25.059.677 46.402-2.375 4.442-5.64 9.46-9.098 14.778-9.387 14.44-21.074 32.407-18.698 45.509 1.01 5.552 3.972 9.485 8.813 11.687 7.408 3.368 18.817 2.18 27.132-2.83 16.897-10.174 21.657-25.324 26.69-41.358 2.852-9.088 5.802-18.484 11.038-27.367 3.709-6.296 7.549-7.664 10.18-7.664z"/><path fill="#ffcd5b" d="M160.387 65.018c3.252.394 6.143.71 8.689.988 5.083.555 8.766.957 11.593 1.56l-2.772-10.965c-.898-2.88-3.648-7.446-15.871-8.925-7.021-.85-11.129-4.164-13.539-7.716l-2.132 8.434c-.035.885-.052 4.339 1.404 7.848 2.095 5.062 6.344 8.015 12.628 8.776M162.843 40.883c4.713.573 8.664 1.62 11.878 3.155l-8.361-33.082c-.766-3.035-3.227-4.117-5.271-4.117s-4.504 1.082-5.27 4.117l-4.075 16.111c-.029.791-.046 3.694 1.112 6.626 1.669 4.224 4.934 6.575 9.987 7.19"/><path fill="#80d2f7" d="M158.829 89.901c6.484.787 11.873 1.257 16.203 1.633 5.3.462 9.115.795 12.061 1.424l-4.338-17.159c-.136-.338-.519-.74-2.133-1.21-2.465-.713-6.582-1.162-12.278-1.787-2.567-.282-5.475-.598-8.77-.996-9.017-1.094-13.93-5.54-16.612-9.985l-2.802 11.088c-.089.68-.549 5.322 2.657 9.567 3.018 4.001 8.408 6.502 16.016 7.421z"/><path fill="#c766c7" d="M189.26 101.528c-.2-.56-.651-1.072-2.333-1.568-2.503-.744-6.688-1.107-12.487-1.612-4.38-.38-9.83-.86-16.429-1.659-9.583-1.162-16.557-4.595-20.724-10.207a16 16 0 0 1-.413-.582l-5.416 21.416c-1.158 4.574.647 9.456 4.492 12.145 10.66 7.459 27.953 13.392 49.785-.697 4.049-2.612 5.965-7.566 4.76-12.324l-1.239-4.903z"/><path fill="#000" d="m197.102 104.752-1.077-4.258h.004c-.034-.15-.076-.286-.115-.427l-6.458-25.542h.004c-.025-.115-.059-.218-.089-.329l-4.504-17.808h.004a22 22 0 0 0-.281-1.095L172.954 9.272C171.554 3.728 166.781 0 161.081 0c-5.701 0-10.469 3.728-11.87 9.272l-24.36 96.356c-1.852 7.318 1.043 15.132 7.203 19.441 5.905 4.13 15.476 9.028 27.652 9.028 8.702 0 18.736-2.505 29.712-9.583 6.518-4.207 9.604-12.149 7.68-19.762zm-9.519 16.88c-24.237 15.642-43.395 7.746-53.57.625-5.037-3.523-7.357-9.819-5.846-15.796l24.361-96.356c2.256-8.925 14.883-8.925 17.14 0l24.139 95.48c1.55 6.134-.92 12.623-6.22 16.043z"/><path fill="#000" d="M169.668 10.11c-2.257-8.926-14.884-8.926-17.14 0l-24.361 96.356c-1.511 5.972.809 12.268 5.846 15.795 10.179 7.121 29.333 15.013 53.57-.624 5.3-3.42 7.769-9.913 6.22-16.043l-24.139-95.48zm-17.919 16.958 4.074-16.112c.766-3.035 3.227-4.116 5.271-4.116s4.504 1.081 5.27 4.116l8.362 33.082c-3.215-1.535-7.166-2.582-11.878-3.155-5.054-.611-8.319-2.962-9.988-7.19-1.158-2.936-1.141-5.839-1.111-6.625m-5.39 21.322 2.133-8.434c2.409 3.552 6.522 6.865 13.538 7.715 12.223 1.48 14.973 6.045 15.872 8.926l2.771 10.965c-2.827-.603-6.509-1.005-11.593-1.56-2.55-.278-5.436-.595-8.689-.988-6.284-.76-10.533-3.715-12.627-8.776-1.452-3.51-1.435-6.963-1.405-7.848m-6.203 24.52 2.801-11.09c2.678 4.446 7.595 8.892 16.612 9.987 3.296.397 6.203.718 8.771.995 5.696.625 9.813 1.073 12.278 1.787 1.613.466 2.001.868 2.133 1.21l4.338 17.159c-2.946-.629-6.761-.962-12.061-1.424-4.33-.376-9.72-.846-16.204-1.633-7.607-.923-12.993-3.42-16.016-7.42-3.206-4.245-2.746-8.888-2.656-9.567zm45.583 45.85c-21.831 14.089-39.12 8.156-49.785.697-3.844-2.689-5.65-7.571-4.492-12.145l5.416-21.416q.2.294.413.581c4.168 5.613 11.137 9.05 20.724 10.208 6.595.8 12.049 1.274 16.43 1.659 5.794.504 9.983.872 12.486 1.611 1.682.501 2.133 1.009 2.333 1.569l1.239 4.903c1.201 4.758-.711 9.712-4.759 12.324zM257.801 195.632c.449-15.272-3.126-29.318-14.553-41.178-15.894-16.502-40.569-15.11-53.926 3.178-13.396 18.337-11.402 46.064 4.505 62.654 18.988 19.798 50.669 14.374 60.538-10.364 1.842-4.614 3.073-9.339 3.431-14.282z"/><path fill="#fefefe" d="M227.455 225.758c-6.805-3.292-12.148-6.826-15.361-12.504-7.364-13.03-6.748-25.924 2.506-37.693 8.071-10.259 25.43-10.206 33.484.468.384.504.794.994 1.226 1.533.04-2.991-2.09-7.978-5.775-13.639-4.64-7.128-10.965-12.246-20.048-14.168-11.087-2.342-20.084.941-26.78 8.963-6.735 8.056-9.542 17.359-9.258 27.557.258 9.277 2.449 17.981 7.984 25.801 7.276 10.28 17.429 15.411 32.026 13.682h-.009z"/><path fill="#fdfdfd" d="M242.178 184.733c-.384-2.513-.511-5.726-3.95-7.749-4.431-2.61-9.084-1.344-11.092 3.095-1.458 3.245.463 9.243 3.61 11.187 2.152 1.331 4.417 1.497 6.775.477 2.776-1.195 4.439-3.481 4.657-7.01"/><path fill="#000" d="M149.12 197.12c1.205-15.241-1.672-29.413-12.497-41.729-15.06-17.137-39.779-16.752-54.026.972-14.291 17.771-13.676 45.552 1.397 62.771 17.988 20.552 49.905 16.432 60.992-7.881 2.069-4.535 3.536-9.207 4.138-14.128z"/><path fill="#fefefe" d="M117.316 225.973c-6.635-3.564-11.799-7.316-14.728-13.122-6.709-13.319-5.456-26.173 4.37-37.552 8.573-9.922 25.911-9.155 33.427 1.834.358.521.742 1.025 1.148 1.581.188-2.986-1.693-8.052-5.094-13.862-4.282-7.312-10.345-12.68-19.324-14.969-10.96-2.794-20.11.122-27.194 7.859-7.124 7.771-10.393 16.952-10.616 27.149-.205 9.278 1.554 18.065 6.696 26.104 6.762 10.569 16.649 16.108 31.315 14.978"/><path fill="#fdfdfd" d="M134.056 185.592c-.258-2.527-.227-5.74-3.562-7.903-4.295-2.785-9.01-1.712-11.231 2.64-1.62 3.178.004 9.251 3.051 11.322 2.086 1.419 4.339 1.677 6.744.753 2.833-1.081 4.609-3.297 5.002-6.812z"/></g><defs><linearGradient id="SvgjsLinearGradient1020" x1="76.355" x2="20.576" y1="104.384" y2="374.456" gradientUnits="userSpaceOnUse"><stop stop-color="#b940b8"/><stop offset="1" stop-color="#660094"/></linearGradient><clipPath id="SvgjsClipPath1019"><path fill="#fff" d="M0 0h396v396H0z"/></clipPath></defs></svg><style>@media (prefers-color-scheme:light){:root{filter:none}}@media (prefers-color-scheme:dark){:root{filter:none}}</style></svg>