<svg xmlns="http://www.w3.org/2000/svg" width="24" height="24" fill="none" viewBox="0 0 24 24"><circle cx="12" cy="12" r="12" fill="#fff"/><path fill="#213147" d="M22.48 14.607c-1.442 5.782-7.298 9.313-13.09 7.87C3.606 21.033.081 15.177 1.522 9.395 2.964 3.61 8.817.08 14.596 1.523c5.796 1.424 9.321 7.298 7.884 13.084"/><path fill="#213147" d="M5.3 8.934v6.35c0 .389.227.778.552.972l5.508 3.174c.356.194.779.194 1.135 0l5.507-3.174c.357-.194.552-.583.552-.972v-6.35c0-.39-.226-.779-.552-.972l-5.51-3.175a1.18 1.18 0 0 0-1.135 0L5.85 7.962c-.356.193-.55.583-.55.972"/><path fill="#12aaff" d="M14.436 9.712c.066-.13.226-.13.26 0l2.719 7.485-1.555.908-2.203-6.06a.2.2 0 0 1 0-.193zM12.362 15.48l.779-2.14c.063-.13.226-.13.257 0l1.88 5.119-1.555.908-1.36-3.694a.2.2 0 0 1 0-.194"/><path fill="#9dcced" d="M11.91 5.014c.033 0 .063 0 .096.033l5.96 3.434q.096.05.097.193v6.87c0 .063-.033.162-.096.192l-5.96 3.435c-.034.033-.064.033-.097.033-.034 0-.064 0-.097-.033l-5.96-3.434q-.096-.05-.097-.194V8.674c0-.063.033-.162.096-.193l5.96-3.434c.031-.033.065-.033.098-.033m0-1.005c-.227 0-.423.063-.616.163l-5.96 3.434a1.21 1.21 0 0 0-.616 1.068v6.87c0 .421.226.841.615 1.068l5.96 3.434c.194.097.39.163.617.163s.422-.064.615-.163l5.96-3.434a1.21 1.21 0 0 0 .616-1.069V8.674c0-.422-.226-.842-.615-1.068l-5.93-3.434a1.35 1.35 0 0 0-.616-.163z"/><path fill="#213147" d="m7.99 18.102.549-1.49 1.101.908-1.035.972z"/><path fill="#fff" d="M12.523 8.189h1.524l-.034-.031c.097 0 .163.097.13.193l-4.017 11.016-1.554-.909 3.691-10.107c.033-.099.163-.162.26-.162M9.9 8.189h1.49c.097 0 .163.096.13.193l-3.564 9.754-1.554-.909L9.64 8.351c.033-.099.163-.162.26-.162"/></svg>