<svg xmlns="http://www.w3.org/2000/svg" width="24" height="24" fill="none" viewBox="0 0 24 24"><circle cx="11.999" cy="12" r="11.733" fill="#fff"/><path fill="#eceff0" d="M22.359 14.574c-1.423 5.71-7.207 9.198-12.929 7.774C3.72 20.92.238 15.136 1.661 9.425 3.085 3.715 8.865.227 14.572 1.651c5.725 1.407 9.207 7.209 7.787 12.923"/><path fill="#343535" d="M12.134 14.587c-.042.014-.065-.022-.094-.039q-2.07-1.222-4.14-2.447l-.04-.017v-.018l.024-.015a1 1 0 0 0 .102-.033l3.255-1.48q.435-.199.87-.394h.021v.118q.003 2.162.002 4.325"/><path fill="#2f3030" d="M12.136 10.145h-.021l.004-.127V5.16a.4.4 0 0 1 .008-.124h.01c.17.252.318.517.474.777l3.722 6.174q.017.03.032.064a1 1 0 0 1-.103-.03l-1.741-.796-1.703-.771q-.34-.156-.682-.308"/><path fill="#828384" d="M12.129 5.033a.4.4 0 0 0-.008.124v4.86q-.001.06-.005.126-.435.194-.87.393l-3.255 1.481a1 1 0 0 1-.103.033c.095-.195.217-.373.328-.56l3.878-6.44.028-.034z"/><path fill="#131313" d="M12.136 10.145q.342.152.683.306l1.703.771 1.06.484.68.313a1 1 0 0 0 .104.03c.041.052-.02.054-.039.065q-.53.316-1.063.63l-3.05 1.804q-.04.021-.08.039v-4.324z"/><path fill="#2f3030" d="m12.12 15.406 2.662-1.57 1.524-.9.046-.026c.005.041-.024.063-.041.087q-1.74 2.454-3.482 4.906-.329.466-.66.93c-.012.016-.03.091-.065.011.028-.024.016-.056.016-.083z"/><path fill="#828384" d="M12.119 15.406v3.353c0 .029.012.061-.016.083-.06-.035-.085-.1-.124-.152q-2.018-2.842-4.035-5.687l-.05-.076c.035-.02.054.008.074.02q2.04 1.204 4.081 2.412z"/><path fill="#393939" d="m12.13 5.033-.01-.015c.017-.012.015.005.018.014z"/></svg>