<svg xmlns="http://www.w3.org/2000/svg" width="24" height="24" fill="none" viewBox="0 0 24 24"><circle cx="12" cy="12" r="12" fill="#fff"/><g clip-path="url(#a)"><path fill="#ff0420" d="M22.8 12c0-5.964-4.835-10.8-10.8-10.8C6.036 1.2 1.2 6.036 1.2 12S6.036 22.8 12 22.8 22.8 17.965 22.8 12"/><path fill="#fff" fill-rule="evenodd" d="M12 21.45v-4a7.45 7.45 0 0 0 0-14.9v4a7.45 7.45 0 0 0 0 14.9m3.686-9.415v-.07a7.92 7.92 0 0 1-3.651-3.651h-.07a7.92 7.92 0 0 1-3.65 3.651v.07a7.92 7.92 0 0 1 3.65 3.65h.07a7.92 7.92 0 0 1 3.651-3.65" clip-rule="evenodd"/></g><defs><clipPath id="a"><path fill="#fff" d="M1.2 1.2h21.6v21.6H1.2z"/></clipPath></defs></svg>