<svg xmlns="http://www.w3.org/2000/svg" width="24" height="24" fill="none" viewBox="0 0 24 24"><circle cx="12" cy="12" r="12" fill="#fff"/><path fill="url(#a)" d="M12 22.8c5.965 0 10.8-4.835 10.8-10.8 0-5.964-4.835-10.8-10.8-10.8C6.037 1.2 1.2 6.036 1.2 12S6.037 22.8 12 22.8"/><path fill="#fff" d="m15.118 14.335 3.056-1.764a.53.53 0 0 0 .262-.454V8.588a.53.53 0 0 0-.262-.454L15.118 6.37a.53.53 0 0 0-.524 0l-3.056 1.764a.53.53 0 0 0-.262.454v6.306L9.134 16.13 6.99 14.894v-2.475l2.143-1.236 1.413.815v-1.66l-1.152-.664a.53.53 0 0 0-.524 0l-3.055 1.764a.53.53 0 0 0-.262.455v3.528c0 .186.1.36.262.454l3.055 1.764a.53.53 0 0 0 .524 0l3.056-1.763a.53.53 0 0 0 .262-.455V9.116l.039-.022 2.104-1.215 2.142 1.237v2.474l-2.142 1.237-1.411-.815v1.66l1.149.664a.53.53 0 0 0 .524 0"/><defs><linearGradient id="a" x1="-2.747" x2="19.552" y1="2.975" y2="16.621" gradientUnits="userSpaceOnUse"><stop stop-color="#a229c5"/><stop offset="1" stop-color="#7b3fe4"/></linearGradient></defs></svg>